<?xml version="1.0" encoding="utf-8"?>
<!-- Generator: Adobe Illustrator 18.1.1, SVG Export Plug-In . SVG Version: 6.00 Build 0)  -->
<svg version="1.1" xmlns="http://www.w3.org/2000/svg" xmlns:xlink="http://www.w3.org/1999/xlink" x="0px" y="0px"
	 viewBox="0 0 200 200" enable-background="new 0 0 200 200" xml:space="preserve">
<g id="Layer_1" display="none">
</g>
<g id="Layer_2">
	<g>
		<ellipse fill="#4679AC" cx="97.6" cy="127.3" rx="52.4" ry="52.1"/>
		<g>
			<path fill="#F8C02F" d="M71.2,172.3c-10.1-21-4.7-33.1,3-44.5c8.5-12.4,10.7-24.8,10.7-24.8s6.7,8.7,4,22.3
				c11.8-13.2,14-34.1,12.3-42.1c26.7,18.7,38.1,59.1,22.8,89.1c81.9-46.3,20.4-115.6,9.7-123.4c3.6,7.8,4.2,21-3,27.4
				c-12.2-46.3-42.4-55.8-42.4-55.8c3.6,23.9-12.9,50-28.8,69.5c-0.6-9.5-1.2-16.1-6.2-25.2C52.2,82.1,39,96.2,35.4,113.5
				C30.5,137,39,154.2,71.2,172.3L71.2,172.3z"/>
		</g>
	</g>
</g>
<g id="Layer_3">
</g>
<g id="Layer_4">
</g>
</svg>
