<?xml version="1.0" encoding="utf-8"?>
<!-- Generator: Adobe Illustrator 18.1.1, SVG Export Plug-In . SVG Version: 6.00 Build 0)  -->
<svg version="1.1" xmlns="http://www.w3.org/2000/svg" xmlns:xlink="http://www.w3.org/1999/xlink" x="0px" y="0px"
	 viewBox="0 0 200 200" enable-background="new 0 0 200 200" xml:space="preserve">
<g id="Layer_1" display="none">
</g>
<g id="Layer_2">
</g>
<g id="Layer_3">
</g>
<g id="Layer_4">
	<g>
		<path fill="#4679AC" d="M169.7,47.2c-15.5-11.7-39.3-18.8-63.8-18.8c-30.2,0-54.9,10.6-67.6,29c-6,8.6-9.3,18.9-9.8,30.4
			c-0.5,10.3,1.2,21.6,5.1,33.9C47,81.9,84,50.7,126.8,50.7c0,0-40,10.5-65.1,43.1c0,0-0.3,0.4-0.9,1.2c-5,6.8-9.4,14.4-12.7,23.1
			c-5.6,13.3-10.7,31.5-10.7,53.4h17.9c0,0-2.7-17.1,2-36.8c7.8,1.1,14.8,1.6,21.1,1.6c16.5,0,28.2-3.6,36.8-11.2
			c7.8-6.9,12.1-16.1,16.6-25.8c6.9-14.9,14.8-31.8,37.6-44.8c1.3-0.7,2.1-2.1,2.2-3.6C171.6,49.5,170.9,48.1,169.7,47.2L169.7,47.2
			z"/>
		<path fill="#F8C02F" d="M37.2,171.6c0,0-8.7-103,105.6-125c0,0-94.8,24.4-87.7,125H37.2z"/>
	</g>
</g>
</svg>
