<?xml version="1.0" encoding="utf-8"?>
<!-- Generator: Adobe Illustrator 18.1.1, SVG Export Plug-In . SVG Version: 6.00 Build 0)  -->
<svg version="1.1" xmlns="http://www.w3.org/2000/svg" xmlns:xlink="http://www.w3.org/1999/xlink" x="0px" y="0px"
	 viewBox="0 0 200 200" enable-background="new 0 0 200 200" xml:space="preserve">
<g id="Layer_1" display="none">
</g>
<g id="Layer_2">
	<path fill="#4C4C4C" d="M182.8,151.6L105.1,85c3.6-6.8,5.7-14.5,5.7-22.8c0-26.8-21.7-48.5-48.5-48.5c-4.9,0-9.6,0.7-14.1,2.1
		l28,28c4.2,4.2,4.2,11.1,0,15.3L59.1,76.2c-4.2,4.2-11.1,4.2-15.3,0l-28-28c-1.4,4.5-2.1,9.2-2.1,14.1c0,26.8,21.7,48.5,48.5,48.5
		c8.2,0,16-2,22.8-5.7l66.5,77.6c3.9,4.5,10.5,4.8,14.7,0.6l17.1-17.1C187.5,162,187.3,155.4,182.8,151.6L182.8,151.6z"/>
	<path fill="#4679AC" d="M182.8,151.6L182.8,151.6l-74.2-63.6c-4.6,8.8-11.8,16-20.6,20.6l63.6,74.2c3.9,4.5,10.5,4.8,14.7,0.6
		l17.1-17.1C187.5,162,187.3,155.4,182.8,151.6z"/>
</g>
<g id="Layer_3">
</g>
<g id="Layer_4">
</g>
</svg>
